<?xml version="1.0" encoding="utf-8"?>
<!-- Generator: Adobe Illustrator 16.0.0, SVG Export Plug-In . SVG Version: 6.00 Build 0)  -->
<!DOCTYPE svg PUBLIC "-//W3C//DTD SVG 1.1//EN" "http://www.w3.org/Graphics/SVG/1.1/DTD/svg11.dtd">
<svg version="1.1" id="Layer_1" xmlns="http://www.w3.org/2000/svg" xmlns:xlink="http://www.w3.org/1999/xlink" x="0px" y="0px"
	 width="544px" height="137.333px" viewBox="0 0 544 137.333" enable-background="new 0 0 544 137.333" xml:space="preserve">
<g>
	<path fill="none" d="M57.397,62.676c-1.65,0-3,1.35-3,3v27.626c0,1.65,1.35,3,3,3h62.607c1.65,0,3-1.35,3-3V65.676
		c0-1.65-1.35-3-3-3H57.397z"/>
</g>
<g>
	<defs>
		<path id="SVGID_1_" d="M74.709,23.179c-1.962-1.127-5.173-1.127-7.128,0L35.097,41.935c-1.962,1.127-3.567,3.909-3.567,6.178
			v37.489c0,2.275,1.605,5.057,3.567,6.185l32.484,18.747c1.956,1.143,5.166,1.143,7.128,0l32.469-18.747
			c1.961-1.128,3.568-3.91,3.568-6.185V48.113c0-2.269-1.607-5.051-3.568-6.178L74.709,23.179z"/>
	</defs>
	<clipPath id="SVGID_2_">
		<use xlink:href="#SVGID_1_"  overflow="visible"/>
	</clipPath>
	<g clip-path="url(#SVGID_2_)">
		<polygon fill="#FFFFFF" points="31.529,43.999 31.529,89.723 71.142,112.601 71.142,66.861 		"/>
		<polygon opacity="0.3" fill="#4138E8" points="71.142,66.861 71.142,112.601 110.747,89.723 110.747,43.999 		"/>
		<polygon fill="#4138E8" points="71.142,21.123 31.529,43.999 71.142,66.861 110.747,43.999 		"/>
	</g>
	<use xlink:href="#SVGID_1_"  overflow="visible" fill="none" stroke="#E6E6E6" stroke-miterlimit="10"/>
</g>
<polygon fill="#E6E6E6" points="87.056,76.046 71.142,85.239 55.219,76.046 55.219,57.661 71.142,48.482 87.056,57.661 "/>
<g>
	<text transform="matrix(1 0 0 1 130.0156 82.7202)" font-family="'Montserrat-Bold'" font-size="40.7147" letter-spacing="2">OPEN</text>
</g>
<g>
	<text transform="matrix(1 0 0 1 273.1172 82.7202)" font-family="'Montserrat-Bold'" font-size="40.7147" letter-spacing="2">INTEGRITY</text>
</g>
</svg>
